<?xml version="1.0" encoding="utf-8"?>
<!-- Generator: Adobe Illustrator 18.0.0, SVG Export Plug-In . SVG Version: 6.00 Build 0)  -->
<!DOCTYPE svg PUBLIC "-//W3C//DTD SVG 1.1//EN" "http://www.w3.org/Graphics/SVG/1.1/DTD/svg11.dtd">
<svg version="1.1" id="Layer_1" xmlns="http://www.w3.org/2000/svg" xmlns:xlink="http://www.w3.org/1999/xlink" x="0px" y="0px"
	 viewBox="0 0 960 560" enable-background="new 0 0 960 560" xml:space="preserve">
<path fill="#FFFFFF" d="M395.8,188.2c-11.5,0-20.7,9.3-20.7,20.7s9.3,20.7,20.7,20.7c11.5,0,20.7-9.3,20.7-20.7
	S407.3,188.2,395.8,188.2z M406.8,208.7l-9.6,7.3c-0.5,0.3-1.1,0.5-1.7,0.5c-1,0-2-0.5-2.5-1.4c-0.5-0.7-0.5-1.4-0.5-2.2
	c0-0.2,0-0.4,0-0.6c0,0,0-0.4,0-14.2c0-1.8,1-3,2.6-3s2.6,1.2,2.6,3l0,10l5.4-4c1.3-0.9,3.2-0.9,4.4,0.5
	C408.5,205.9,407.8,207.9,406.8,208.7z M395.7,169.2c-19.5,0-34.8,15.8-34.8,35.2c0,0,0.1,17.8,0.2,35.6h0c0.1,18,0.2,35.6,0.2,35.6
	c0.1,20,15.1,35.1,34.5,35.1c19.5,0,34.3-15.8,34.3-35.3c0-0.4,0-17.9,0-35.4c0-17.6,0-35.2,0-35.6C430,185,415.2,169.2,395.7,169.2
	z M395.3,298.6c-9.7-18.5-17.9-21.3-17.9-31.2c0-9.9,8-17.9,17.9-17.9c9.9,0,17.9,8,17.9,17.9C413.3,277.3,404.9,280,395.3,298.6z
	 M424,240h-56.9c-0.1-17.7-0.2-35.4-0.2-35.6c0-16.4,12.6-29.2,28.8-29.2c15.9,0,28.3,12.9,28.3,29.3V240z M395.3,275.2
	c-4.1,0-7.5-3.4-7.5-7.5s3.4-7.5,7.5-7.5s7.5,3.4,7.5,7.5S399.5,275.2,395.3,275.2z"/>
</svg>
