<?xml version="1.0" encoding="utf-8"?>
<!-- Generator: Adobe Illustrator 18.0.0, SVG Export Plug-In . SVG Version: 6.00 Build 0)  -->
<!DOCTYPE svg PUBLIC "-//W3C//DTD SVG 1.1//EN" "http://www.w3.org/Graphics/SVG/1.1/DTD/svg11.dtd">
<svg version="1.1" id="Layer_1" xmlns="http://www.w3.org/2000/svg" xmlns:xlink="http://www.w3.org/1999/xlink" x="0px" y="0px"
	 viewBox="0 0 50 50" enable-background="new 0 0 50 50" xml:space="preserve">
<path fill="#FFFFFF" d="M46.2,1.7H3.8c-1.1,0-1.9,0.9-1.9,1.9v42.6c0,1.1,0.9,1.9,1.9,1.9h42.4c1.1,0,1.9-0.9,1.9-1.9V3.7
	C48.2,2.6,47.3,1.7,46.2,1.7z M44.5,23.9h-7.7v-7.5h7.7V23.9z M13.3,34.1H5.5v-7.5h7.8V34.1z M23.7,16.4v7.5H16v-7.5H23.7z
	 M26.4,26.6h7.7v7.5h-7.7V26.6z M23.7,26.6v7.5H16v-7.5H23.7z M23.7,36.8v7.8H16v-7.8H23.7z M26.4,36.8h7.7v7.8h-7.7V36.8z
	 M26.4,23.9v-7.5h7.7v7.5H26.4z M36.8,26.6h7.7v7.5h-7.7V26.6z M36.9,5c2.1,0,3.9,1.7,3.9,3.9s-1.7,3.9-3.9,3.9s-3.9-1.7-3.9-3.9
	S34.8,5,36.9,5z M13.1,5c2.1,0,3.9,1.7,3.9,3.9s-1.7,3.9-3.9,3.9S9.2,11,9.2,8.9S11,5,13.1,5z M13.3,16.4v7.5H5.5v-7.5H13.3z
	 M5.5,44v-7.2h7.8v7.8H6C5.7,44.5,5.5,44.3,5.5,44z M44,44.5h-7.2v-7.8h7.7V44C44.5,44.3,44.3,44.5,44,44.5z"/>
</svg>
