<?xml version="1.0" encoding="utf-8"?>
<!-- Generator: Adobe Illustrator 18.0.0, SVG Export Plug-In . SVG Version: 6.00 Build 0)  -->
<!DOCTYPE svg PUBLIC "-//W3C//DTD SVG 1.1//EN" "http://www.w3.org/Graphics/SVG/1.1/DTD/svg11.dtd">
<svg version="1.1" id="Layer_1" xmlns="http://www.w3.org/2000/svg" xmlns:xlink="http://www.w3.org/1999/xlink" x="0px" y="0px"
	 viewBox="0 0 20 40" enable-background="new 0 0 20 40" xml:space="preserve">
<path fill="#FFFFFF" d="M9.8,5.6C6.6,5.6,4,8.2,4,11.4s2.6,5.8,5.8,5.8c3.2,0,5.8-2.6,5.8-5.8S13,5.6,9.8,5.6z M12.9,11.3l-2.7,2
	c-0.1,0.1-0.3,0.1-0.5,0.1c-0.4,0.1-1.2-0.2-1.2-1c0-1,0-3.4,0-4.1c0-0.5,0.4-0.8,0.8-0.8s0.8,0.3,0.8,0.8l0.1,2.8l1.5-1.1
	c0.4-0.2,0.9-0.3,1.2,0.1C13.3,10.5,13.2,11.1,12.9,11.3z M10.1,0.2c-5.4,0-9.7,4.4-9.7,9.8c0,0,0,5,0,9.9h0c0,5,0,9.9,0,9.9
	c0,5.6,4.3,9.8,9.7,9.8c5.4,0,9.6-4.4,9.6-9.8c0-0.1,0-5,0-9.9c0-4.9,0-9.8,0-9.9C19.6,4.7,15.5,0.2,10.1,0.2z M9.7,36.4
	c-2.7-5.2-5-5.9-5-8.7c0-2.8,2.2-5,5-5c2.8,0,5,2.2,5,5C14.7,30.4,12.4,31.2,9.7,36.4z M17.9,20H2.1c0-4.9,0-9.9,0-9.9
	c0-4.6,3.5-8.2,8-8.2c4.4,0,7.9,3.6,7.9,8.2V20z M9.7,29.9c-1.2,0-2.1-0.9-2.1-2.1s0.9-2.1,2.1-2.1s2.1,0.9,2.1,2.1
	S10.9,29.9,9.7,29.9z"/>
</svg>
