<?xml version="1.0" encoding="utf-8"?>
<!-- Generator: Adobe Illustrator 18.0.0, SVG Export Plug-In . SVG Version: 6.00 Build 0)  -->
<!DOCTYPE svg PUBLIC "-//W3C//DTD SVG 1.1//EN" "http://www.w3.org/Graphics/SVG/1.1/DTD/svg11.dtd">
<svg version="1.1" id="Layer_1" xmlns="http://www.w3.org/2000/svg" xmlns:xlink="http://www.w3.org/1999/xlink" x="0px" y="0px"
	 viewBox="0 0 69.6 140.7" enable-background="new 0 0 69.6 140.7" xml:space="preserve">
<path fill="#FFFFFF" d="M34.8,19.2c-11.3,0-20.5,9.2-20.5,20.5s9.2,20.5,20.5,20.5c11.3,0,20.5-9.2,20.5-20.5S46.1,19.2,34.8,19.2z
	 M45.6,39.5l-9.5,7.2c-0.5,0.3-1.1,0.5-1.6,0.5c-1,0-1.9-0.5-2.5-1.4c-0.5-0.7-0.5-1.4-0.5-2.2c0-0.2,0-0.4,0-0.6c0,0,0-0.4,0-14
	c0-1.8,1-3,2.6-3c1.5,0,2.6,1.2,2.6,3l0,9.9l5.3-3.9c1.3-0.9,3.2-0.9,4.3,0.5C47.3,36.7,46.6,38.7,45.6,39.5z M35.1,0.4
	C15.8,0.4,0.5,15.7,0.5,35c0,0-0.1,18-0.1,35h0c0.1,18,0.2,35.4,0.2,35.4c0.1,19.8,15.4,34.8,34.6,34.8c19.3,0,34.4-15.5,34.4-34.8
	c0-0.4,0-17.7,0-35c0-17.4,0-34.8,0-35.2C69.5,16,54.4,0.4,35.1,0.4z M34.3,128.4c-9.6-18.3-17.7-21.1-17.7-30.9
	c0-9.8,7.9-17.7,17.7-17.7c9.8,0,17.7,7.9,17.7,17.7C52,107.3,43.7,110.1,34.3,128.4z M63.5,70H6.4C6.3,53,6.2,35.2,6.2,35
	c0-16.2,12.9-28.8,28.9-28.8c15.7,0,28.4,12.8,28.4,29.1V70z M34.3,105.3c-4.1,0-7.4-3.3-7.4-7.4c0-4.1,3.3-7.4,7.4-7.4
	s7.4,3.3,7.4,7.4C41.7,102,38.4,105.3,34.3,105.3z"/>
</svg>
