<?xml version="1.0" encoding="utf-8"?>
<!-- Generator: Adobe Illustrator 18.0.0, SVG Export Plug-In . SVG Version: 6.00 Build 0)  -->
<!DOCTYPE svg PUBLIC "-//W3C//DTD SVG 1.1//EN" "http://www.w3.org/Graphics/SVG/1.1/DTD/svg11.dtd">
<svg version="1.1" id="Layer_1" xmlns="http://www.w3.org/2000/svg" xmlns:xlink="http://www.w3.org/1999/xlink" x="0px" y="0px"
	 viewBox="0 0 50 50" enable-background="new 0 0 50 50" xml:space="preserve">
<path fill="#FFFFFF" d="M25,1C11.7,1,1,11.7,1,25s10.7,24,24,24s24-10.7,24-24S38.3,1,25,1z M23.6,14.3c-1.9-0.1-3.8-0.4-5.7-0.9
	c1.4-2.9,3.3-5.6,5.7-7.8V14.3z M23.6,16.8v6.8h-8.2c0.1-2.7,0.7-5.4,1.6-7.8C19.1,16.4,21.3,16.7,23.6,16.8z M26.4,16.8
	c2.3-0.1,4.5-0.5,6.7-1c0.9,2.5,1.4,5.1,1.6,7.8h-8.2V16.8z M26.4,14.3V5.6c2.3,2.2,4.2,4.9,5.7,7.8C30.2,13.9,28.3,14.2,26.4,14.3z
	 M30.1,5.7c3.4,0.9,6.4,2.6,8.8,5c-1.4,0.8-2.8,1.4-4.3,2C33.4,10.1,31.9,7.8,30.1,5.7z M15.4,12.6c-1.5-0.5-3-1.2-4.3-2
	c2.4-2.3,5.5-4.1,8.8-5C18.1,7.8,16.6,10.1,15.4,12.6z M14.5,15c-1,2.7-1.6,5.6-1.7,8.6H5.1c0.3-4.2,1.8-8,4.3-11
	C11,13.5,12.7,14.3,14.5,15z M12.8,26.4c0.1,2.6,0.6,5.2,1.4,7.6c-1.9,0.7-3.7,1.6-5.4,2.7c-2.1-2.9-3.4-6.4-3.7-10.3H12.8z
	 M15.4,26.4h8.2V32c-2.4,0.1-4.8,0.5-7,1.1C15.9,31,15.5,28.8,15.4,26.4z M23.6,34.6v9.8c-2.6-2.5-4.7-5.5-6.1-8.8
	C19.4,35,21.5,34.7,23.6,34.6z M26.4,44.4v-9.8c2.1,0.1,4.2,0.4,6.1,1C31.1,38.9,29,41.9,26.4,44.4z M26.4,32v-5.6h8.2
	c-0.1,2.4-0.5,4.6-1.2,6.8C31.2,32.5,28.8,32.1,26.4,32z M37.2,26.4h7.7c-0.3,3.8-1.6,7.3-3.7,10.3c-1.7-1.1-3.5-1.9-5.4-2.7
	C36.6,31.6,37.1,29,37.2,26.4z M37.2,23.6c-0.1-3-0.7-5.9-1.7-8.6c1.8-0.7,3.5-1.5,5.1-2.4c2.4,3.1,4,6.9,4.3,11H37.2z M10.4,38.7
	c1.5-0.9,3-1.6,4.6-2.3c1.2,2.9,2.9,5.6,4.9,7.9C16.2,43.4,12.9,41.4,10.4,38.7z M30.1,44.3c2-2.3,3.7-5,4.9-7.9
	c1.6,0.6,3.2,1.4,4.6,2.3C37.1,41.4,33.8,43.4,30.1,44.3z"/>
</svg>
